<?xml version="1.0" standalone="no"?>
<svg xmlns:xlink="http://www.w3.org/1999/xlink" id="wave" style="transform:rotate(180deg); transition: 0.3s" viewBox="0 0 1440 210" version="1.1" xmlns="http://www.w3.org/2000/svg"><defs><linearGradient id="sw-gradient-0" x1="0" x2="0" y1="1" y2="0"><stop stop-color="rgba(27, 72, 91, 1)" offset="0%"/><stop stop-color="rgba(27, 72, 91, 1)" offset="100%"/></linearGradient></defs><path style="transform:translate(0, 0px); opacity:1" fill="url(#sw-gradient-0)" d="M0,126L80,126C160,126,320,126,480,112C640,98,800,70,960,66.5C1120,63,1280,84,1440,101.5C1600,119,1760,133,1920,115.5C2080,98,2240,49,2400,45.5C2560,42,2720,84,2880,105C3040,126,3200,126,3360,108.5C3520,91,3680,56,3840,35C4000,14,4160,7,4320,17.5C4480,28,4640,56,4800,63C4960,70,5120,56,5280,63C5440,70,5600,98,5760,122.5C5920,147,6080,168,6240,164.5C6400,161,6560,133,6720,108.5C6880,84,7040,63,7200,45.5C7360,28,7520,14,7680,24.5C7840,35,8000,70,8160,91C8320,112,8480,119,8640,126C8800,133,8960,140,9120,147C9280,154,9440,161,9600,157.5C9760,154,9920,140,10080,126C10240,112,10400,98,10560,84C10720,70,10880,56,11040,59.5C11200,63,11360,84,11440,94.5L11520,105L11520,210L11440,210C11360,210,11200,210,11040,210C10880,210,10720,210,10560,210C10400,210,10240,210,10080,210C9920,210,9760,210,9600,210C9440,210,9280,210,9120,210C8960,210,8800,210,8640,210C8480,210,8320,210,8160,210C8000,210,7840,210,7680,210C7520,210,7360,210,7200,210C7040,210,6880,210,6720,210C6560,210,6400,210,6240,210C6080,210,5920,210,5760,210C5600,210,5440,210,5280,210C5120,210,4960,210,4800,210C4640,210,4480,210,4320,210C4160,210,4000,210,3840,210C3680,210,3520,210,3360,210C3200,210,3040,210,2880,210C2720,210,2560,210,2400,210C2240,210,2080,210,1920,210C1760,210,1600,210,1440,210C1280,210,1120,210,960,210C800,210,640,210,480,210C320,210,160,210,80,210L0,210Z"/><defs><linearGradient id="sw-gradient-1" x1="0" x2="0" y1="1" y2="0"><stop stop-color="rgba(27, 72, 91, 1)" offset="0%"/><stop stop-color="rgba(27, 72, 91, 1)" offset="100%"/></linearGradient></defs><path style="transform:translate(0, 50px); opacity:0.9" fill="url(#sw-gradient-1)" d="M0,105L80,101.5C160,98,320,91,480,84C640,77,800,70,960,87.5C1120,105,1280,147,1440,157.5C1600,168,1760,147,1920,119C2080,91,2240,56,2400,63C2560,70,2720,119,2880,129.5C3040,140,3200,112,3360,84C3520,56,3680,28,3840,24.5C4000,21,4160,42,4320,66.5C4480,91,4640,119,4800,133C4960,147,5120,147,5280,129.5C5440,112,5600,77,5760,84C5920,91,6080,140,6240,136.5C6400,133,6560,77,6720,45.5C6880,14,7040,7,7200,28C7360,49,7520,98,7680,101.5C7840,105,8000,63,8160,52.5C8320,42,8480,63,8640,80.5C8800,98,8960,112,9120,122.5C9280,133,9440,140,9600,136.5C9760,133,9920,119,10080,98C10240,77,10400,49,10560,63C10720,77,10880,133,11040,154C11200,175,11360,161,11440,154L11520,147L11520,210L11440,210C11360,210,11200,210,11040,210C10880,210,10720,210,10560,210C10400,210,10240,210,10080,210C9920,210,9760,210,9600,210C9440,210,9280,210,9120,210C8960,210,8800,210,8640,210C8480,210,8320,210,8160,210C8000,210,7840,210,7680,210C7520,210,7360,210,7200,210C7040,210,6880,210,6720,210C6560,210,6400,210,6240,210C6080,210,5920,210,5760,210C5600,210,5440,210,5280,210C5120,210,4960,210,4800,210C4640,210,4480,210,4320,210C4160,210,4000,210,3840,210C3680,210,3520,210,3360,210C3200,210,3040,210,2880,210C2720,210,2560,210,2400,210C2240,210,2080,210,1920,210C1760,210,1600,210,1440,210C1280,210,1120,210,960,210C800,210,640,210,480,210C320,210,160,210,80,210L0,210Z"/></svg>